<svg xmlns="http://www.w3.org/2000/svg" xmlns:xlink="http://www.w3.org/1999/xlink" width="584.148" height="611.509" viewBox="0 0 584.148 611.509">
  <defs>
    <linearGradient id="linear-gradient" x1="0.29" y1="0.983" x2="1.064" y2="-0.177" gradientUnits="objectBoundingBox">
      <stop offset="0" stop-color="#d500f9"/>
      <stop offset="0.99" stop-color="#2979ff"/>
    </linearGradient>
    <linearGradient id="linear-gradient-2" x1="0.197" y1="0.963" x2="0.735" y2="-0.133" xlink:href="#linear-gradient"/>
    <linearGradient id="linear-gradient-3" x1="0.265" y1="0.854" x2="0.772" y2="0.09" gradientUnits="objectBoundingBox">
      <stop offset="0" stop-color="#ea80fc"/>
      <stop offset="0.99" stop-color="#40c4ff"/>
    </linearGradient>
  </defs>
  <g id="Group_2369" data-name="Group 2369" transform="matrix(-0.966, -0.259, 0.259, -0.966, 289.635, 1159.448)">
    <g id="Group_2368" data-name="Group 2368" transform="translate(-27.353 574.597)" style="isolation: isolate">
      <path id="Path_1549" data-name="Path 1549" d="M305.624,778.192c.318-1.118.66-2.234.953-3.355.352-1.346.648-2.695.966-4.043.259-1.09.542-2.177.779-3.271.3-1.386.539-2.776.8-4.162.2-1.062.43-2.118.607-3.181.246-1.452.43-2.9.632-4.355.14-1,.312-2,.433-3,.178-1.47.293-2.941.427-4.408.09-.987.212-1.975.283-2.962.115-1.6.165-3.19.227-4.785.034-.857.1-1.714.122-2.57q.079-3.677-.025-7.339c-.966-33.357-13.6-60.478-33.955-78.742l-48.382-43.429c20.348,18.264,32.987,45.388,33.955,78.745q.1,3.659.022,7.336c-.019.866-.087,1.732-.121,2.6-.065,1.586-.112,3.171-.227,4.76-.072,1-.2,1.994-.287,2.991-.134,1.458-.246,2.919-.424,4.377-.122,1.009-.293,2.016-.436,3.025-.2,1.445-.386,2.891-.629,4.336-.178,1.059-.408,2.118-.607,3.177-.262,1.389-.5,2.779-.8,4.162-.237,1.1-.523,2.193-.782,3.29-.315,1.343-.611,2.688-.963,4.025-.3,1.131-.639,2.249-.956,3.374-.368,1.3-.716,2.6-1.115,3.9-.349,1.137-.748,2.265-1.122,3.4-.417,1.271-.816,2.542-1.262,3.807q-1.458,4.112-3.121,8.18c-.327.8-.679,1.589-1.016,2.383-.816,1.934-1.657,3.86-2.539,5.772q-.724,1.579-1.483,3.146-.9,1.86-1.835,3.71-.85,1.682-1.741,3.352-.972,1.832-1.984,3.651c-.651,1.168-1.308,2.33-1.981,3.486q-.836,1.43-1.688,2.85-1.107,1.827-2.255,3.639c-.586.931-1.174,1.86-1.776,2.782-.5.767-1.022,1.52-1.533,2.281-2.237,3.33-4.545,6.62-6.972,9.831-.156.206-.318.4-.474.608-2.243,2.947-4.582,5.832-6.978,8.669-.458.542-.91,1.094-1.374,1.632q-3.649,4.238-7.523,8.292c-.517.545-1.047,1.078-1.57,1.614-2.635,2.707-5.324,5.361-8.1,7.928-.1.1-.2.2-.308.293-2.956,2.726-6.009,5.339-9.109,7.891-.71.583-1.414,1.177-2.131,1.751-.835.667-1.676,1.321-2.517,1.975q-1.743,1.35-3.511,2.673-1.3.962-2.611,1.9-1.668,1.2-3.368,2.364-1.678,1.159-3.377,2.28-1.621,1.07-3.265,2.109-1.72,1.089-3.464,2.14c-1,.608-2.009,1.2-3.022,1.785-1.819,1.056-3.654,2.072-5.5,3.065-.829.445-1.654.9-2.489,1.336-2.635,1.364-5.29,2.685-7.981,3.919l-.087.044c-3.168,1.452-6.383,2.775-9.623,4.037-.807.318-1.62.626-2.433.932-3.262,1.218-6.548,2.374-9.872,3.392-2.654.81-5.29,1.526-7.909,2.187-.841.212-1.673.389-2.511.586-1.788.42-3.57.819-5.339,1.171-.963.19-1.916.358-2.872.53q-2.486.439-4.944.794c-.956.137-1.91.271-2.86.39-1.7.209-3.392.374-5.075.52-.832.072-1.67.159-2.5.215q-3.336.229-6.62.286c-.259,0-.52.025-.779.028-2.436.028-4.847-.022-7.233-.128-.732-.034-1.455-.1-2.181-.143-1.573-.1-3.134-.218-4.682-.374-1.716-.175-3.4-.411-5.09-.654-.956-.14-1.922-.252-2.869-.414-2.012-.346-3.987-.763-5.947-1.209-.589-.134-1.2-.233-1.782-.377-.614-.15-1.206-.34-1.813-.5-1.639-.43-3.268-.872-4.869-1.371-.822-.258-1.623-.557-2.436-.835-1.374-.467-2.748-.935-4.09-1.455-.673-.262-1.336-.545-2-.819q-2.051-.841-4.053-1.766c-.692-.321-1.38-.645-2.062-.981q-2.182-1.07-4.3-2.243c-.417-.23-.844-.446-1.259-.685q-2.715-1.552-5.311-3.268c-.371-.246-.732-.508-1.1-.76q-2.061-1.4-4.04-2.9c-.467-.355-.935-.71-1.392-1.072-1.6-1.265-3.184-2.561-4.7-3.925L56.9,897.839q1.78,1.6,3.642,3.109c.346.28.71.539,1.059.813.461.364.928.72,1.392,1.072q1.981,1.5,4.04,2.906c.371.249.729.511,1.1.757.15.1.293.209.445.308,1.586,1.034,3.212,2.016,4.866,2.962.411.237.841.452,1.259.685.963.533,1.922,1.078,2.906,1.583.458.234.935.436,1.4.664.679.333,1.368.657,2.056.975,1.333.62,2.685,1.206,4.053,1.77.667.274,1.327.554,2,.816.305.118.6.255.9.371,1.044.392,2.125.726,3.187,1.087.813.277,1.614.573,2.436.832,1.607.5,3.249.947,4.9,1.38.595.156,1.178.343,1.782.489.069.019.134.041.2.056.526.128,1.078.206,1.607.327,1.953.443,3.916.86,5.916,1.2.953.162,1.925.277,2.885.418,1.682.243,3.368.476,5.081.651.352.037.692.1,1.047.134,1.2.112,2.42.165,3.632.24.729.047,1.449.112,2.184.143,2.386.106,4.794.159,7.233.128.255,0,.52-.022.779-.028q3.28-.061,6.62-.283c.826-.056,1.657-.146,2.486-.218,1.688-.143,3.38-.308,5.087-.52.947-.115,1.9-.249,2.853-.386q2.463-.355,4.947-.8c.956-.168,1.91-.34,2.872-.53,1.769-.349,3.551-.748,5.336-1.168.838-.2,1.673-.374,2.514-.586,2.62-.66,5.255-1.38,7.906-2.19,3.327-1.015,6.61-2.174,9.875-3.392q1.22-.454,2.433-.928c3.237-1.265,6.455-2.586,9.623-4.04l.006,0,.081-.037c2.688-1.237,5.342-2.555,7.978-3.919.841-.436,1.667-.894,2.5-1.343q2.762-1.486,5.486-3.056c.455-.265.925-.5,1.377-.769.561-.33,1.1-.689,1.66-1.025q1.734-1.047,3.442-2.131,1.654-1.042,3.286-2.118,1.692-1.117,3.364-2.274c.567-.39,1.149-.757,1.713-1.156s1.1-.81,1.657-1.209q1.313-.944,2.611-1.906,1.771-1.318,3.511-2.673c.841-.654,1.682-1.305,2.514-1.972.377-.3.766-.592,1.143-.9.336-.274.651-.579.991-.857,3.1-2.551,6.149-5.162,9.106-7.888l.069-.059c.087-.078.165-.165.252-.243,2.766-2.564,5.452-5.218,8.084-7.919.315-.324.654-.62.966-.947.209-.215.4-.449.607-.667q3.864-4.051,7.517-8.29c.178-.2.371-.4.545-.6.293-.339.555-.7.841-1.047,2.4-2.832,4.729-5.713,6.969-8.657.121-.159.255-.305.374-.464.037-.047.065-.1.1-.143,2.427-3.212,4.732-6.5,6.966-9.825.24-.352.508-.689.745-1.047.274-.411.53-.838.8-1.253.6-.916,1.181-1.835,1.763-2.76q1.149-1.817,2.262-3.657.855-1.411,1.682-2.838c.349-.6.716-1.184,1.056-1.782.324-.567.617-1.143.931-1.713q1.014-1.813,1.981-3.642.893-1.673,1.748-3.362.935-1.845,1.829-3.7c.3-.62.623-1.231.916-1.85.2-.43.371-.866.57-1.3.882-1.916,1.723-3.841,2.539-5.776.336-.794.688-1.586,1.012-2.383,1.1-2.71,2.153-5.436,3.121-8.177l.056-.14c.43-1.224.81-2.458,1.215-3.685.371-1.128.766-2.253,1.115-3.383C304.907,780.805,305.256,779.5,305.624,778.192Z" transform="translate(103.21 -502.706)" fill="url(#linear-gradient)"/>
      <path id="Path_1550" data-name="Path 1550" d="M258.027,622.894c.6-.128,1.2-.246,1.8-.368,3.218-.657,6.423-1.262,9.6-1.772l.255-.038c3.134-.5,6.243-.91,9.336-1.268.561-.065,1.121-.137,1.682-.2q4.542-.5,9.025-.785c.589-.037,1.174-.068,1.76-.1,3.065-.175,6.115-.3,9.131-.337.146,0,.29,0,.433,0,2.941-.028,5.85.022,8.741.122.517.019,1.04.031,1.558.053q4.308.187,8.542.564c.76.065,1.52.14,2.274.215q1.841.187,3.66.4c.854.1,1.707.212,2.554.327q1.818.247,3.62.533c.826.128,1.654.258,2.477.4,1.237.212,2.464.442,3.688.679.766.146,1.536.289,2.3.445,1.358.283,2.7.589,4.043.9.586.134,1.174.259,1.754.4,2.966.723,5.885,1.536,8.769,2.408.43.131.86.252,1.287.386q4.182,1.3,8.243,2.816c.5.184,1,.368,1.489.557,2.408.922,4.791,1.885,7.131,2.913.3.131.586.271.882.4q3.248,1.453,6.4,3.043c.43.215.863.427,1.29.645q3.135,1.617,6.181,3.364c.43.246.854.505,1.283.757q2.584,1.523,5.1,3.14c.433.28.872.551,1.305.835q2.822,1.855,5.554,3.832c.364.265.72.542,1.084.81q2.257,1.668,4.445,3.417c.48.383.959.763,1.433,1.153,1.688,1.386,3.358,2.794,4.984,4.255l.019.016-.006-.006.006,0L364.759,614.4c-1.632-1.467-3.311-2.881-5.006-4.274-.2-.165-.393-.343-.6-.5-.271-.221-.558-.421-.829-.638q-2.192-1.753-4.445-3.417c-.368-.271-.726-.548-1.093-.816q-2.729-1.977-5.551-3.832c-.15-.1-.293-.206-.442-.3-.28-.184-.576-.346-.86-.53q-2.514-1.617-5.106-3.14c-.43-.252-.854-.511-1.283-.76q-3.047-1.748-6.184-3.364c-.156-.078-.3-.168-.455-.246-.271-.14-.555-.258-.826-.392q-3.163-1.593-6.417-3.05c-.29-.131-.576-.271-.869-.4-2.34-1.028-4.72-1.991-7.124-2.909-.259-.1-.508-.218-.769-.315-.24-.09-.492-.162-.735-.252q-4.056-1.5-8.23-2.81c-.43-.134-.866-.258-1.3-.389-2.882-.872-5.8-1.682-8.76-2.405-.069-.016-.137-.041-.206-.056-.52-.128-1.056-.23-1.579-.352-1.333-.308-2.67-.617-4.019-.894-.76-.159-1.53-.3-2.3-.445-1.227-.237-2.452-.471-3.691-.682-.822-.14-1.648-.268-2.477-.4-1.2-.187-2.4-.368-3.617-.529-.85-.115-1.7-.224-2.558-.327q-1.822-.224-3.663-.4c-.511-.053-1.012-.121-1.526-.168-.243-.022-.492-.028-.738-.05q-4.234-.374-8.548-.561c-.517-.025-1.04-.034-1.558-.053-2.891-.1-5.8-.15-8.738-.122l-.436,0c-3.015.037-6.062.162-9.127.336-.589.034-1.174.066-1.763.1q-4.477.294-9.018.782c-.564.062-1.131.134-1.7.2-3.09.358-6.2.767-9.327,1.265-.084.016-.171.025-.255.041-3.177.508-6.38,1.115-9.595,1.769-.6.125-1.209.243-1.813.371q-4.677.991-9.4,2.193c-.6.153-1.2.315-1.8.471-3.286.86-6.579,1.773-9.894,2.785-3.448,1.056-6.872,2.206-10.28,3.4-1.006.355-2,.726-3,1.09q-3.776,1.378-7.511,2.866c-.991.4-1.981.782-2.969,1.19-3.321,1.368-6.629,2.785-9.9,4.284l-.053.025-.025.009c-.053.025-.1.053-.156.078-4.124,1.894-8.2,3.913-12.236,6.006-1.29.67-2.561,1.374-3.841,2.063q-4.262,2.285-8.451,4.707c-.7.405-1.424.77-2.118,1.181-.857.5-1.688,1.056-2.542,1.57q-2.668,1.612-5.308,3.283-2.533,1.6-5.037,3.252-2.612,1.72-5.187,3.5c-.875.6-1.773,1.168-2.642,1.782-.854.6-1.685,1.243-2.539,1.853q-2.019,1.449-4.015,2.935-2.715,2.019-5.389,4.1c-1.3,1.009-2.6,2.016-3.885,3.047-.583.467-1.181.91-1.76,1.383-1.346,1.09-2.657,2.227-3.987,3.342-.988.829-1.987,1.648-2.966,2.489q-3.654,3.14-7.218,6.4c-.43.392-.875.769-1.3,1.165-.056.05-.112.1-.165.15Q70,655.8,66.083,659.684c-.788.776-1.551,1.57-2.33,2.352-1.336,1.342-2.688,2.673-4,4.037-.542.564-1.062,1.143-1.6,1.71-.913.963-1.813,1.935-2.713,2.906q-2.561,2.762-5.056,5.579c-.869.978-1.738,1.956-2.592,2.944-.455.523-.925,1.034-1.377,1.561-1.33,1.558-2.62,3.146-3.919,4.726-.657.8-1.33,1.582-1.978,2.383q-3.411,4.22-6.688,8.529c-.078.1-.15.209-.227.312-.5.657-.966,1.327-1.455,1.984q-2.663,3.579-5.233,7.212c-.769,1.1-1.514,2.209-2.271,3.311-.941,1.374-1.906,2.735-2.825,4.121-.417.626-.8,1.268-1.212,1.894-.922,1.414-1.822,2.835-2.723,4.258q-1.766,2.794-3.477,5.617-1.313,2.173-2.586,4.367c-.539.926-1.109,1.835-1.639,2.763-.492.863-.938,1.744-1.421,2.614q-1.556,2.79-3.05,5.6-1.364,2.57-2.679,5.156-1.439,2.836-2.816,5.7c-.461.963-.963,1.906-1.417,2.869-.308.661-.57,1.33-.872,1.991-1.358,2.941-2.651,5.9-3.906,8.875-.514,1.218-1.056,2.433-1.554,3.657-1.695,4.168-3.308,8.355-4.8,12.573-.028.075-.062.153-.09.227-.664,1.882-1.246,3.776-1.866,5.664-.57,1.726-1.174,3.445-1.71,5.177-.617,2.012-1.156,4.034-1.729,6.053-.483,1.71-1.006,3.414-1.455,5.131-.53,2.015-.972,4.04-1.452,6.062-.408,1.729-.86,3.455-1.234,5.187-.436,2.025-.785,4.053-1.168,6.081-.33,1.735-.7,3.467-1,5.205-.358,2.128-.626,4.259-.928,6.389-.231,1.642-.511,3.277-.707,4.919-.28,2.324-.464,4.648-.676,6.972-.131,1.449-.312,2.9-.417,4.346-.184,2.576-.268,5.149-.368,7.726-.044,1.2-.14,2.392-.168,3.586q-.126,5.649.037,11.28C-25.774,922.6-6.336,964.31,24.956,992.4l48.385,43.429c-31.292-28.09-50.734-69.8-52.22-121.105q-.159-5.631-.034-11.283c.028-1.246.128-2.5.178-3.745.1-2.52.178-5.04.358-7.56.112-1.554.305-3.109.449-4.66.2-2.221.377-4.439.645-6.657.2-1.682.486-3.364.726-5.047.3-2.087.558-4.177.91-6.265.29-1.732.664-3.461.991-5.193.386-2.031.738-4.065,1.174-6.093.377-1.745.829-3.483,1.243-5.224.474-2.01.916-4.019,1.439-6.022.455-1.732.981-3.452,1.47-5.177.567-2.006,1.1-4.012,1.716-6.009.533-1.726,1.137-3.442,1.7-5.162.648-1.972,1.268-3.947,1.959-5.909,1.492-4.215,3.106-8.4,4.8-12.57.5-1.227,1.04-2.443,1.554-3.663,1.255-2.972,2.548-5.931,3.906-8.875q1.121-2.434,2.29-4.85,1.378-2.86,2.816-5.7,1.313-2.589,2.679-5.152,1.5-2.822,3.056-5.62,1.5-2.687,3.044-5.355c.857-1.467,1.716-2.928,2.595-4.383q1.71-2.822,3.48-5.617c.9-1.421,1.794-2.841,2.716-4.249,1.324-2.025,2.679-4.031,4.047-6.028.754-1.1,1.5-2.209,2.262-3.3q2.561-3.635,5.227-7.2c.492-.664.966-1.339,1.464-2q3.378-4.472,6.916-8.838c.648-.8,1.318-1.586,1.975-2.383q2.612-3.168,5.3-6.29c.857-.988,1.726-1.966,2.595-2.944q2.5-2.813,5.053-5.576,1.35-1.462,2.72-2.913,2.752-2.9,5.585-5.732c.782-.788,1.554-1.586,2.346-2.368q4.009-3.948,8.14-7.766c.417-.386.854-.757,1.274-1.14q3.575-3.262,7.243-6.421c.978-.841,1.975-1.657,2.963-2.486,1.9-1.6,3.819-3.181,5.757-4.732,1.28-1.025,2.576-2.031,3.872-3.037q2.677-2.079,5.4-4.106,2-1.486,4.019-2.938,2.57-1.841,5.171-3.629,2.584-1.776,5.193-3.5,2.5-1.649,5.034-3.249,2.645-1.673,5.314-3.287,2.313-1.4,4.651-2.748,4.2-2.434,8.467-4.713c1.274-.685,2.542-1.389,3.825-2.056,4.053-2.1,8.137-4.125,12.274-6.025.047-.022.093-.047.143-.069l.09-.041c3.258-1.5,6.554-2.9,9.863-4.268.991-.408,1.991-.8,2.984-1.2q3.724-1.481,7.486-2.857c1.009-.368,2.016-.741,3.025-1.1,3.4-1.2,6.825-2.346,10.274-3.4,3.311-1.013,6.607-1.925,9.888-2.785.6-.159,1.2-.321,1.8-.473Q253.348,623.886,258.027,622.894Z" transform="translate(27.353 -574.597)" fill="url(#linear-gradient-2)"/>
      <g id="Group_2367" data-name="Group 2367" transform="translate(48.383 43.417)">
        <path id="Path_1551" data-name="Path 1551" d="M204.077,598.866c122.458-37.442,224.94,30.1,228.429,150.559C436,869.9,339.188,998.377,216.727,1035.819,94.242,1073.266-8.241,1005.72-11.73,885.241-15.216,764.789,81.591,636.313,204.077,598.866Zm10.439,360.556c79.655-24.351,142.591-107.9,140.32-186.253-2.268-78.322-68.892-122.261-148.547-97.91S63.673,783.172,65.941,861.494c2.268,78.35,68.923,122.283,148.575,97.929" transform="translate(11.821 -588.535)" fill="url(#linear-gradient-3)"/>
      </g>
    </g>
  </g>
</svg>
