<svg xmlns="http://www.w3.org/2000/svg" xmlns:xlink="http://www.w3.org/1999/xlink" width="300.599" height="85.006" viewBox="0 0 300.599 85.006">
  <defs>
    <linearGradient id="linear-gradient" x1="0.5" x2="0.5" y2="1" gradientUnits="objectBoundingBox">
      <stop offset="0" stop-color="#46c2ff"/>
      <stop offset="1" stop-color="#bd11fa"/>
    </linearGradient>
  </defs>
  <g id="Group_2448" data-name="Group 2448" transform="translate(-309 -651.013)">
    <g id="Group_2446" data-name="Group 2446">
      <path id="Path_1604" data-name="Path 1604" d="M373.518,672.411v-21.4L309,693.515l64.518,42.5v-21.4l-32.037-21.1Z" fill="url(#linear-gradient)"/>
      <path id="Path_1605" data-name="Path 1605" d="M406,651.013l-32.482,21.4v42.21L406,736.018Z" fill="url(#linear-gradient)"/>
    </g>
    <g id="Group_2447" data-name="Group 2447">
      <path id="Path_1606" data-name="Path 1606" d="M432.511,695.452H421.424l-2.354,5.455h-2.533l9.328-21.22h2.146l9.328,21.22h-2.5Zm-.865-2.026-4.678-10.908-4.679,10.908Z" fill="#fff"/>
      <path id="Path_1607" data-name="Path 1607" d="M462.284,685.915l-5.543,14.992h-2.325l-4.291-11.713-4.262,11.713h-2.325l-5.543-14.992h2.533l4.232,12.1,4.381-12.1h2.116l4.322,12.13,4.321-12.13Z" fill="#fff"/>
      <path id="Path_1608" data-name="Path 1608" d="M477.781,693.336h-11a6.438,6.438,0,0,0,1.326,4.322,4.776,4.776,0,0,0,3.77,1.46,7.571,7.571,0,0,0,4.828-1.758l.8,1.758a6.965,6.965,0,0,1-2.518,1.46,9.437,9.437,0,0,1-3.144.538,7.3,7.3,0,0,1-5.514-2.072,7.838,7.838,0,0,1-2-5.677,8.919,8.919,0,0,1,.894-4.069,6.692,6.692,0,0,1,2.5-2.757,6.894,6.894,0,0,1,3.666-.983,5.881,5.881,0,0,1,4.679,1.952,7.926,7.926,0,0,1,1.7,5.38Zm-9.4-4.768a5.469,5.469,0,0,0-1.5,3.189h8.732a5.132,5.132,0,0,0-1.237-3.219,3.875,3.875,0,0,0-2.935-1.1A4.225,4.225,0,0,0,468.378,688.568Z" fill="#fff"/>
      <path id="Path_1609" data-name="Path 1609" d="M480.523,699.178l.8-1.788a8.308,8.308,0,0,0,2.474,1.371,8.827,8.827,0,0,0,2.8.417,4.688,4.688,0,0,0,2.578-.581,1.9,1.9,0,0,0,.88-1.684,1.83,1.83,0,0,0-.6-1.43,4.339,4.339,0,0,0-1.967-.835l-2.533-.6a5.59,5.59,0,0,1-2.906-1.49A3.579,3.579,0,0,1,481.03,690a3.883,3.883,0,0,1,1.579-3.2,6.579,6.579,0,0,1,4.173-1.237,8.688,8.688,0,0,1,2.98.507,6.318,6.318,0,0,1,2.355,1.46l-.8,1.758a6.975,6.975,0,0,0-4.53-1.758,4.328,4.328,0,0,0-2.489.611,1.969,1.969,0,0,0-.879,1.714,1.945,1.945,0,0,0,.551,1.46,3.846,3.846,0,0,0,1.774.835l2.533.625a6.376,6.376,0,0,1,3.1,1.475,3.5,3.5,0,0,1,1.013,2.608,3.657,3.657,0,0,1-1.58,3.1,7.088,7.088,0,0,1-4.291,1.164A8.758,8.758,0,0,1,480.523,699.178Z" fill="#fff"/>
      <path id="Path_1610" data-name="Path 1610" d="M498.7,700.161a6.388,6.388,0,0,1-2.489-2.711,10.062,10.062,0,0,1,0-8.226,6.4,6.4,0,0,1,2.489-2.712,7.749,7.749,0,0,1,7.45,0,6.4,6.4,0,0,1,2.489,2.712,10.062,10.062,0,0,1,0,8.226,6.388,6.388,0,0,1-2.489,2.711,7.742,7.742,0,0,1-7.45,0Zm7.152-2.518a6.721,6.721,0,0,0,1.192-4.307,6.58,6.58,0,0,0-1.221-4.247,4.622,4.622,0,0,0-6.826,0,6.58,6.58,0,0,0-1.221,4.247,6.661,6.661,0,0,0,1.207,4.307,4.2,4.2,0,0,0,3.442,1.475A4.151,4.151,0,0,0,505.855,697.643Z" fill="#fff"/>
      <path id="Path_1611" data-name="Path 1611" d="M534.884,691.489v9.418H532.47v-9.3a5.094,5.094,0,0,0-.731-3.07,2.8,2.8,0,0,0-2.369-.954,3.673,3.673,0,0,0-2.98,1.283,5.257,5.257,0,0,0-1.073,3.486v8.554H522.9v-9.3a5.03,5.03,0,0,0-.745-3.055,2.823,2.823,0,0,0-2.385-.969,3.717,3.717,0,0,0-2.995,1.283,5.213,5.213,0,0,0-1.088,3.486v8.554h-2.414v-10.79a33.582,33.582,0,0,0-.238-4.2h2.295l.238,2.623a4.8,4.8,0,0,1,1.863-2.206,5.314,5.314,0,0,1,2.876-.774,5.386,5.386,0,0,1,2.92.715,4.166,4.166,0,0,1,1.669,2.206,5.184,5.184,0,0,1,2.012-2.131,5.744,5.744,0,0,1,2.995-.79Q534.884,685.558,534.884,691.489Z" fill="#fff"/>
      <path id="Path_1612" data-name="Path 1612" d="M552.02,693.336h-11a6.433,6.433,0,0,0,1.326,4.322,4.774,4.774,0,0,0,3.77,1.46,7.571,7.571,0,0,0,4.828-1.758l.8,1.758a6.961,6.961,0,0,1-2.519,1.46,9.428,9.428,0,0,1-3.144.538,7.3,7.3,0,0,1-5.513-2.072,7.838,7.838,0,0,1-2-5.677,8.919,8.919,0,0,1,.894-4.069,6.685,6.685,0,0,1,2.5-2.757,6.889,6.889,0,0,1,3.666-.983,5.877,5.877,0,0,1,4.678,1.952,7.921,7.921,0,0,1,1.7,5.38Zm-9.4-4.768a5.475,5.475,0,0,0-1.505,3.189h8.733a5.131,5.131,0,0,0-1.237-3.219,3.878,3.878,0,0,0-2.936-1.1A4.223,4.223,0,0,0,542.617,688.568Z" fill="#fff"/>
      <path id="Path_1613" data-name="Path 1613" d="M569.872,695.452H558.786l-2.355,5.455H553.9l9.328-21.22h2.146l9.328,21.22h-2.5Zm-.864-2.026-4.679-10.908-4.679,10.908Z" fill="#fff"/>
      <path id="Path_1614" data-name="Path 1614" d="M588.529,686.541a6.5,6.5,0,0,1,2.354,2.757,9.53,9.53,0,0,1,.835,4.1,9.328,9.328,0,0,1-.835,4.068,6.19,6.19,0,0,1-5.841,3.652,5.92,5.92,0,0,1-3.07-.776,5,5,0,0,1-2-2.205v9.209h-2.414V690.117a33.57,33.57,0,0,0-.239-4.2h2.295l.238,2.892a4.922,4.922,0,0,1,1.982-2.4,5.9,5.9,0,0,1,3.2-.85A6.279,6.279,0,0,1,588.529,686.541Zm-.522,11.087a6.564,6.564,0,0,0,1.207-4.232,6.708,6.708,0,0,0-1.221-4.277,4.606,4.606,0,0,0-6.826-.044,6.683,6.683,0,0,0-1.191,4.261,6.751,6.751,0,0,0,1.191,4.278,4.655,4.655,0,0,0,6.84.014Z" fill="#fff"/>
      <path id="Path_1615" data-name="Path 1615" d="M606.41,686.541a6.5,6.5,0,0,1,2.355,2.757,9.531,9.531,0,0,1,.834,4.1,9.328,9.328,0,0,1-.834,4.068,6.192,6.192,0,0,1-5.842,3.652,5.916,5.916,0,0,1-3.069-.776,5,5,0,0,1-2-2.205v9.209h-2.414V690.117a33.781,33.781,0,0,0-.238-4.2H597.5l.239,2.892a4.917,4.917,0,0,1,1.982-2.4,5.9,5.9,0,0,1,3.2-.85A6.279,6.279,0,0,1,606.41,686.541Zm-.521,11.087A6.569,6.569,0,0,0,607.1,693.4a6.709,6.709,0,0,0-1.222-4.277,4.6,4.6,0,0,0-6.825-.044,6.677,6.677,0,0,0-1.192,4.261,6.745,6.745,0,0,0,1.192,4.278,4.655,4.655,0,0,0,6.84.014Z" fill="#fff"/>
    </g>
  </g>
</svg>
